<?xml version="1.0" standalone="no"?>
<!DOCTYPE svg PUBLIC "-//W3C//DTD SVG 20010904//EN"
 "http://www.w3.org/TR/2001/REC-SVG-20010904/DTD/svg10.dtd">
<svg version="1.0" xmlns="http://www.w3.org/2000/svg"
 width="555.000000pt" height="601.000000pt" viewBox="0 0 555.000000 601.000000"
 preserveAspectRatio="xMidYMid meet">

<g transform="translate(0.000000,601.000000) scale(0.100000,-0.100000)"
fill="#000000" stroke="none">
<path d="M0 3005 l0 -3005 2775 0 2775 0 0 3005 0 3005 -2775 0 -2775 0 0
-3005z m4051 2838 c21 -54 -4 -228 -86 -607 -14 -65 -24 -121 -21 -123 2 -3 7
6 11 19 18 63 28 78 52 78 22 0 47 -34 37 -52 -2 -3 -9 -143 -14 -310 -5 -167
-16 -375 -24 -463 -81 -867 -101 -1548 -93 -3172 3 -854 2 -1135 -7 -1142 -40
-34 -39 -83 -45 1921 -3 1052 -9 1873 -13 1823 -13 -162 -28 -978 -28 -1562 0
-370 -4 -574 -10 -578 -6 -4 -10 -133 -10 -353 -1 -470 -20 -609 -83 -600 -53
7 -52 -8 -52 938 1 481 4 960 8 1065 4 104 6 187 3 185 -6 -7 -32 -288 -51
-555 -35 -493 -47 -733 -52 -1108 -6 -390 -5 -398 15 -420 35 -38 62 -91 62
-122 0 -21 21 -58 70 -124 68 -92 90 -138 90 -194 0 -62 -40 -85 -87 -52 -54
38 -241 314 -341 504 -31 58 -86 151 -122 206 -37 55 -75 115 -85 133 -20 33
-30 39 -40 22 -3 -5 -15 -10 -26 -10 -10 0 -19 -2 -19 -5 0 -12 119 -242 202
-389 121 -215 221 -367 299 -451 89 -97 111 -130 107 -162 -2 -22 -9 -29 -31
-31 -24 -3 -44 12 -140 110 -62 62 -137 149 -168 193 -176 248 -379 634 -614
1165 -230 519 -432 1118 -683 2025 -116 419 -138 506 -162 635 l-17 95 -6 -75
c-7 -85 -32 -886 -47 -1485 -15 -623 -19 -669 -61 -699 -20 -14 -20 -19 -18
-930 1 -633 -1 -920 -9 -928 -7 -7 -20 -7 -44 1 -30 10 -37 19 -52 66 -41 130
-53 320 -65 1001 -5 287 -12 437 -19 450 -9 14 -11 -147 -12 -643 0 -653 0
-662 -20 -676 -15 -11 -22 -31 -28 -81 -9 -75 -28 -102 -62 -91 -27 8 -46 53
-68 154 -14 68 -16 186 -14 1101 4 1550 21 1948 128 2995 21 206 25 291 22
487 -2 204 0 239 14 255 11 13 17 50 22 135 7 132 17 171 44 166 15 -3 18 -21
22 -152 4 -114 8 -150 19 -154 11 -4 13 31 11 199 -2 306 9 377 54 340 10 -9
13 -84 13 -381 0 -250 3 -374 11 -382 12 -12 13 -5 42 272 22 210 53 423 70
481 19 67 59 75 79 17 6 -17 11 -107 11 -202 0 -138 4 -185 20 -246 11 -41 23
-106 27 -144 4 -49 12 -73 25 -85 10 -9 18 -29 18 -46 0 -39 32 -163 71 -274
32 -93 49 -121 49 -79 0 34 24 55 45 38 11 -9 15 -32 15 -83 0 -265 57 -502
320 -1337 60 -190 138 -439 174 -555 198 -639 251 -770 568 -1407 163 -329
228 -438 259 -438 5 0 9 218 9 503 1 893 16 1267 80 1912 38 383 63 552 144
985 43 227 45 249 66 645 12 226 25 426 29 445 7 37 37 53 52 28 5 -7 9 -76
10 -153 l1 -140 33 280 c43 369 50 405 86 405 12 0 24 -11 30 -27z"/>
<path d="M1848 5610 c-12 -39 -10 -76 3 -63 6 6 9 28 7 49 -3 35 -4 36 -10 14z"/>
<path d="M1827 5470 c-24 -64 -90 -913 -74 -954 4 -9 15 -16 25 -16 45 0 51
-48 8 -68 -21 -9 -24 -19 -29 -103 -9 -127 -8 -1874 2 -1924 4 -26 10 40 14
190 25 815 59 1798 72 2076 19 413 19 742 1 784 -10 22 -15 26 -19 15z"/>
<path d="M1906 4978 c-3 -101 -9 -215 -12 -254 -6 -65 -5 -71 13 -76 17 -5 21
-20 31 -129 35 -384 236 -1172 427 -1680 80 -212 108 -267 65 -128 -10 35 -46
172 -79 304 -55 220 -87 359 -158 690 -14 66 -40 183 -58 260 -18 77 -52 228
-75 335 -22 107 -48 226 -57 264 -8 38 -13 81 -10 96 5 24 -65 486 -75 496 -3
2 -8 -78 -12 -178z"/>
<path d="M1587 5036 c-7 -50 -3 -68 11 -50 4 5 5 29 2 54 l-5 45 -8 -49z"/>
<path d="M3975 5008 c-2 -7 -6 -69 -9 -138 -2 -69 -14 -174 -25 -233 -17 -90
-22 -175 -30 -510 -10 -447 -10 -447 1 -441 4 3 8 31 8 62 0 61 20 343 45 632
17 197 32 640 21 640 -4 0 -8 -6 -11 -12z"/>
<path d="M1598 4864 c-4 -6 -14 -50 -22 -98 -13 -71 -16 -204 -16 -749 0 -364
0 -736 1 -827 l2 -165 13 115 c27 243 46 1762 22 1724z"/>
<path d="M2044 4698 c3 -12 10 -50 16 -83 12 -66 50 -189 56 -182 5 5 -33 219
-45 250 -13 34 -33 46 -27 15z"/>
<path d="M3737 4102 c-79 -413 -170 -1361 -165 -1727 1 -77 3 -122 5 -100 2
22 12 153 24 290 29 366 95 1005 130 1276 16 130 29 262 27 295 l-3 59 -18
-93z"/>
<path d="M1507 3900 c-18 -156 -27 -593 -25 -1385 0 -467 4 -827 8 -800 5 28
9 122 9 210 1 88 6 254 11 370 12 238 9 1707 -3 1605z"/>
<path d="M2316 3815 c13 -100 49 -229 203 -742 48 -160 53 -170 70 -149 12 14
-5 72 -248 836 -18 54 -28 78 -25 55z"/>
<path d="M1436 3453 c-27 -319 -31 -536 -31 -1633 0 -1062 2 -1164 18 -1270
10 -63 23 -121 28 -130 7 -10 8 168 2 535 -4 303 -8 1006 -8 1563 0 556 0
1012 -1 1012 -1 0 -4 -35 -8 -77z"/>
<path d="M3682 2965 c0 -16 2 -22 5 -12 2 9 2 23 0 30 -3 6 -5 -1 -5 -18z"/>
<path d="M3715 2165 c0 -220 1 -309 2 -197 2 112 2 292 0 400 -1 108 -2 17 -2
-203z"/>
<path d="M1576 2429 c-9 -88 -8 -197 3 -203 4 -3 9 55 10 129 1 74 0 135 -2
135 -2 0 -7 -28 -11 -61z"/>
<path d="M2551 2470 c0 -8 6 -28 14 -45 17 -39 18 -21 0 25 -7 19 -14 28 -14
20z"/>
<path d="M2486 2400 c13 -48 116 -335 164 -454 149 -373 360 -821 532 -1129
80 -143 231 -368 288 -428 l51 -54 -61 93 c-106 161 -237 398 -361 652 -138
282 -147 300 -239 475 -69 131 -151 322 -221 515 -36 100 -167 383 -153 330z"/>
<path d="M2581 2380 c0 -8 6 -28 14 -45 17 -39 18 -21 0 25 -7 19 -14 28 -14
20z"/>
<path d="M2611 2290 c0 -8 4 -22 9 -30 12 -18 12 -2 0 25 -6 13 -9 15 -9 5z"/>
<path d="M2965 1675 c15 -33 35 -79 45 -101 17 -39 40 -66 40 -47 0 11 -90
186 -102 198 -5 6 2 -17 17 -50z"/>
<path d="M3742 975 c0 -16 2 -22 5 -12 2 9 2 23 0 30 -3 6 -5 -1 -5 -18z"/>
<path d="M3450 814 c0 -35 265 -414 289 -414 22 0 -13 81 -70 164 -115 166
-219 285 -219 250z"/>
</g>
</svg>
